<?xml version="1.0" encoding="utf-8"?>
<!DOCTYPE svg PUBLIC "-//W3C//DTD SVG 1.1//EN" "http://www.w3.org/Graphics/SVG/1.1/DTD/svg11.dtd">
<svg version="1.1" xmlns="http://www.w3.org/2000/svg" viewBox="0 0 1052 1052">
<g id="logo">
  <rect id="background" x="0" y="0" width="1052" height="1052"/>
  <path id="j" fill="#FFFFFF" d="M329.406,559.791h78.197v269.902c0,42.828-14.561,75.752-43.676,98.77
    c-22.666,18.281-48.209,27.422-76.626,27.422c-41.149,0-79.332-21.074-114.547-63.223l50.997-43.926
    c13.424,16.422,24.453,27.295,33.083,32.627s17.301,7.998,26.021,7.998c12.9,0,23.275-4.482,31.121-13.457
    c10.285-12.016,15.43-27.422,15.43-46.211V559.791z"/>
  <path id="i" fill="#FFFFFF" d="M514.828,559.791h78.457v388.477h-78.457V559.791z"/>
  <path id="t" fill="#FFFFFF" d="M664.941,559.791h303.367v66.777H855.592v321.699h-78.457V626.568H664.941V559.791z"/>
</g>
</svg>
